<?xml version="1.0" encoding="UTF-8" ?>
<svg    xmlns:dc="http://purl.org/dc/elements/1.1/" xmlns:cc="http://creativecommons.org/ns#" xmlns:rdf="http://www.w3.org/1999/02/22-rdf-syntax-ns#" xmlns:svg="http://www.w3.org/2000/svg" xmlns="http://www.w3.org/2000/svg" xmlns:sodipodi="http://sodipodi.sourceforge.net/DTD/sodipodi-0.dtd" xmlns:inkscape="http://www.inkscape.org/namespaces/inkscape" version="1.1"
 viewBox="0 0 100.0 100.0"
 id="svg2" 
 width="28.222222912098783mm"
 height="28.222222912098783mm">
 <defs  
  id="defs4" /> 
 <sodipodi:namedview 
  id="base" 
  pagecolor="#ffffff" 
  bordercolor="#666666" 
  borderopacity="1.0" 
 inkscape:pageopacity="0.0" 
 inkscape:pageshadow="2" 
  inkscape:document-units="mm" 
  inkscape:current-layer="layer1" 
 showgrid="false" 
  />
<g
inkscape:label="Slice 1"
inkscape:groupmode="layer" 
id="layer1" 
><g
id="g371">
  <polyline points="762.4577175826167,53.724823965816725 761.6943711445833,51.43478465171673 760.9310247065499,49.90809177565004 759.7860050495,48.76307211860005 759.4043318304833,47.61805246155006 757.1142925163833,47.23637924253336 755.9692728593334,46.473032804500065 754.4425799832667,46.09135958548336 752.9158871072,46.09135958548336 751.3891942311333,46.09135958548336 749.8625013550667,46.473032804500065 748.335808479,47.23637924253336 746.8091156029333,47.999725680566755 745.6640959458833,48.76307211860005 744.1374030698166,50.28976499466674 743.7557298508,51.43478465171673 743.3740566317833,52.96147752778343 742.9923834127667,54.48817040385002 742.9923834127667,56.01486327991671 742.9923834127667,57.5415561559834 743.3740566317833,59.06824903204999 743.7557298508,60.21326868910009 744.90074950785,61.73996156516668 745.6640959458833,62.88498122221667 746.8091156029333,64.03000087926667 748.335808479,64.79334731730006 749.8625013550667,65.17502053631665 751.3891942311333,65.55669375533336 752.9158871072,65.93836697435006 754.4425799832667,65.55669375533336 755.9692728593334,65.17502053631665 757.1142925163833,64.79334731730006 759.4043318304833,63.26665444123337 760.9310247065499,61.73996156516668 761.6943711445833,60.21326868910009 762.8393908016334,58.304902594016696 762.8393908016334,56.778209717950006 762.4577175826167,53.724823965816725 " 
stroke="crimson" 
stroke-width="1" 
fill="none"
id="line0" />

  <polyline points="762.4577175826167,142.27301077768334 761.6943711445833,139.98297146358337 760.9310247065499,138.83795180653337 759.4043318304833,136.5479124924334 757.1142925163833,135.7845660544 755.9692728593334,135.0212196163667 754.4425799832667,134.63954639735 752.9158871072,134.63954639735 751.3891942311333,134.63954639735 749.8625013550667,135.0212196163667 748.335808479,135.7845660544 746.8091156029333,136.5479124924334 745.6640959458833,137.3112589304667 744.90074950785,138.83795180653337 743.7557298508,139.98297146358337 743.3740566317833,141.50966433965004 742.9923834127667,143.03635721571675 742.9923834127667,144.56305009178334 742.9923834127667,146.08974296785004 743.3740566317833,147.61643584391672 743.7557298508,149.14312871998342 744.90074950785,150.2881483770334 745.6640959458833,151.4331680340834 746.8091156029333,152.5781876911334 748.335808479,153.3415341291667 749.8625013550667,154.10488056719998 751.3891942311333,154.10488056719998 752.9158871072,154.4865537862167 754.4425799832667,154.10488056719998 755.9692728593334,154.10488056719998 757.1142925163833,153.3415341291667 758.2593121734334,152.95986091014998 759.4043318304833,152.1965144721167 760.9310247065499,150.2881483770334 761.6943711445833,149.14312871998342 762.8393908016334,146.85308940588334 762.8393908016334,145.32639652981675 762.4577175826167,142.27301077768334 " 
stroke="crimson" 
stroke-width="1" 
fill="none"
id="line1" />

  <polyline points="673.90953077075,53.724823965816725 673.1461843327168,51.43478465171673 672.3828378946833,49.90809177565004 671.2378182376333,48.76307211860005 670.0927985805833,47.999725680566755 668.5661057045166,47.23637924253336 667.4210860474666,46.473032804500065 665.8943931714,46.09135958548336 664.3677002953334,46.09135958548336 662.4593342002499,46.09135958548336 660.9326413241834,46.473032804500065 659.7876216671334,47.23637924253336 658.2609287910667,47.999725680566755 657.1159091340166,48.76307211860005 655.5892162579499,50.28976499466674 655.2075430389333,51.43478465171673 654.8258698199166,52.96147752778343 654.4441966009,54.48817040385002 654.4441966009,56.01486327991671 654.4441966009,57.5415561559834 654.8258698199166,59.06824903204999 655.2075430389333,60.21326868910009 655.9708894769667,61.73996156516668 657.1159091340166,62.88498122221667 658.2609287910667,64.03000087926667 659.7876216671334,64.79334731730006 660.9326413241834,65.17502053631665 662.4593342002499,65.55669375533336 664.3677002953334,65.93836697435006 665.8943931714,65.55669375533336 667.4210860474666,65.17502053631665 668.5661057045166,64.79334731730006 670.0927985805833,64.03000087926667 671.2378182376333,62.88498122221667 672.3828378946833,61.73996156516668 673.1461843327168,60.21326868910009 674.2912039897667,58.304902594016696 674.2912039897667,56.778209717950006 673.90953077075,53.724823965816725 " 
stroke="crimson" 
stroke-width="1" 
fill="none"
id="line2" />

  <polyline points="673.90953077075,142.27301077768334 673.1461843327168,139.98297146358337 672.3828378946833,138.83795180653337 670.8561450186166,136.92958571145007 668.5661057045166,135.7845660544 667.4210860474666,135.0212196163667 665.8943931714,134.63954639735 664.3677002953334,134.63954639735 662.4593342002499,134.63954639735 660.9326413241834,135.0212196163667 659.7876216671334,135.7845660544 658.2609287910667,136.5479124924334 657.1159091340166,137.3112589304667 655.9708894769667,138.83795180653337 655.2075430389333,139.98297146358337 654.8258698199166,141.12799112063337 654.4441966009,143.03635721571675 654.4441966009,144.56305009178334 654.4441966009,146.08974296785004 654.8258698199166,147.61643584391672 655.2075430389333,149.14312871998342 656.734235915,151.0514948150667 658.2609287910667,152.5781876911334 659.7876216671334,153.3415341291667 660.9326413241834,154.10488056719998 662.4593342002499,154.10488056719998 664.3677002953334,154.4865537862167 665.8943931714,154.10488056719998 667.4210860474666,154.10488056719998 668.5661057045166,153.3415341291667 670.0927985805833,152.5781876911334 671.2378182376333,151.4331680340834 672.3828378946833,150.2881483770334 673.1461843327168,149.14312871998342 674.2912039897667,146.85308940588334 674.2912039897667,145.32639652981675 673.90953077075,142.27301077768334 " 
stroke="crimson" 
stroke-width="1" 
fill="none"
id="line3" />

  <polyline points="452.5390637410833,-255.81215665669993 452.1573905220667,-257.3388495327665 451.3940440840333,-258.4838691898165 450.630697646,-260.01056206588333 449.8673512079667,-261.1555817229333 448.7223315509167,-262.3006013799833 447.19563867485,-263.0639478180165 445.66894579878334,-263.4456210370333 444.14225292271664,-263.82729425604987 442.61556004665005,-264.20896747506646 441.08886717058334,-263.82729425604987 439.56217429451664,-263.4456210370333 438.03548141844993,-263.0639478180165 436.89046176139993,-262.3006013799833 435.74544210435,-261.1555817229333 434.6004224473,-260.01056206588333 433.8370760092667,-258.4838691898165 433.0737295712333,-257.3388495327665 433.0737295712333,-255.81215665669993 432.6920563522167,-254.28546378063334 433.0737295712333,-252.75877090456657 433.0737295712333,-251.61375124751657 433.8370760092667,-249.70538515243317 434.6004224473,-248.17869227636658 435.74544210435,-247.03367261931658 436.89046176139993,-246.27032618128317 438.03548141844993,-245.12530652423317 439.56217429451664,-244.74363330521658 441.08886717058334,-244.36196008619999 442.61556004665005,-244.36196008619999 444.14225292271664,-244.36196008619999 445.66894579878334,-244.74363330521658 447.19563867485,-245.12530652423317 448.7223315509167,-246.27032618128317 449.8673512079667,-247.03367261931658 450.630697646,-248.17869227636658 451.3940440840333,-249.70538515243317 452.1573905220667,-251.23207802849998 452.9207369601,-252.37709768554993 452.5390637410833,-253.52211734259993 452.5390637410833,-255.81215665669993 " 
stroke="crimson" 
stroke-width="1" 
fill="none"
id="line4" />

  <polyline points="452.1573905220667,449.9016253051167 451.0123708650167,449.13827886708333 449.8673512079667,447.6115859910166 448.7223315509167,446.4665663339666 447.19563867485,445.70321989593333 445.66894579878334,444.9398734579 444.14225292271664,444.55820023888333 442.61556004665005,444.55820023888333 440.70719395156664,444.55820023888333 439.56217429451664,444.9398734579 438.03548141844993,445.70321989593333 436.89046176139993,446.4665663339666 435.74544210435,447.6115859910166 434.6004224473,448.7566056480667 433.8370760092667,449.9016253051167 433.45540279025,451.42831818118333 433.0737295712333,452.95501105725 432.6920563522167,454.4817039333167 433.0737295712333,456.0083968093833 433.45540279025,457.53508968545 433.8370760092667,459.0617825615167 434.6004224473,460.2068022185667 435.74544210435,461.3518218756167 436.89046176139993,462.4968415326666 438.03548141844993,463.2601879707 439.56217429451664,464.0235344087333 441.08886717058334,464.40520762775 442.61556004665005,464.40520762775 444.14225292271664,464.40520762775 445.66894579878334,464.0235344087333 447.19563867485,463.2601879707 448.7223315509167,462.4968415326666 449.8673512079667,461.3518218756167 450.630697646,460.2068022185667 451.3940440840333,459.0617825615167 452.9207369601,456.7717432474167 452.5390637410833,455.24505037135 452.5390637410833,452.95501105725 452.1573905220667,451.42831818118333 452.1573905220667,449.9016253051167 " 
stroke="crimson" 
stroke-width="1" 
fill="none"
id="line5" />

  <polyline points="275.44269011735,98.76226380978338 275.0610168983333,97.23557093371669 274.2976704603,95.70887805765 273.53432402226673,94.1821851815834 272.3893043652166,93.0371655245334 271.2442847081666,92.27381908650001 270.0992650511167,91.51047264846672 268.5725721750501,90.74712621043332 267.0458792989834,90.36545299141673 265.5191864229167,90.36545299141673 263.99249354684997,90.36545299141673 262.4658006707834,90.74712621043332 260.9391077947167,91.51047264846672 259.7940881376667,92.27381908650001 258.64906848061673,93.0371655245334 257.50404882356673,94.1821851815834 256.7407023855333,95.70887805765 255.97735594750003,97.23557093371669 255.59568272848333,98.76226380978338 255.59568272848333,100.28895668585008 255.59568272848333,101.81564956191667 255.97735594750003,103.34234243798336 256.7407023855333,104.86903531405005 257.50404882356673,106.01405497110005 258.64906848061673,107.15907462815004 259.7940881376667,108.30409428520004 260.9391077947167,109.06744072323333 262.4658006707834,109.44911394225002 263.99249354684997,109.83078716126673 265.5191864229167,110.21246038028332 267.0458792989834,109.83078716126673 268.5725721750501,109.44911394225002 270.0992650511167,109.06744072323333 271.2442847081666,108.30409428520004 272.3893043652166,107.15907462815004 273.53432402226673,106.01405497110005 274.2976704603,104.86903531405005 275.0610168983333,103.34234243798336 275.44269011735,101.81564956191667 275.44269011735,100.28895668585008 275.44269011735,98.76226380978338 " 
stroke="crimson" 
stroke-width="1" 
fill="none"
id="line6" />

  <polyline points="9.798129681750007,-255.81215665669993 9.416456462733333,-257.3388495327665 8.653110024700013,-258.4838691898165 7.889763586666667,-260.01056206588333 6.744743929616672,-261.1555817229333 5.599724272566679,-262.3006013799833 4.454704615516684,-263.0639478180165 2.928011739450018,-263.4456210370333 1.4013188633833509,-263.82729425604987 -0.125374012683316,-264.20896747506646 -1.652066888749983,-263.82729425604987 -3.17875976481665,-263.4456210370333 -4.705452640883316,-263.0639478180165 -5.850472297933311,-262.3006013799833 -7.377165173999978,-261.1555817229333 -8.140511612033324,-260.01056206588333 -8.903858050066644,-258.4838691898165 -9.66720448809999,-257.3388495327665 -10.048877707116663,-255.81215665669993 -10.048877707116663,-254.28546378063334 -10.048877707116663,-252.75877090456657 -9.66720448809999,-251.23207802849998 -8.903858050066644,-249.70538515243317 -8.140511612033324,-248.17869227636658 -7.377165173999978,-247.03367261931658 -5.850472297933311,-246.27032618128317 -4.705452640883316,-245.12530652423317 -3.17875976481665,-244.74363330521658 -1.652066888749983,-244.36196008619999 -0.125374012683316,-244.36196008619999 1.4013188633833509,-244.36196008619999 2.928011739450018,-244.74363330521658 4.454704615516684,-245.12530652423317 5.599724272566679,-246.27032618128317 6.744743929616672,-247.03367261931658 7.889763586666667,-248.17869227636658 8.653110024700013,-249.70538515243317 9.798129681750007,-251.61375124751657 9.798129681750007,-253.52211734259993 9.798129681750007,-255.81215665669993 " 
stroke="crimson" 
stroke-width="1" 
fill="none"
id="line7" />

  <polyline points="-79.13173034913332,7.160691245783369 -80.65842322519998,5.633998369716679 -81.80344288225,4.488978712666679 -82.94846253929998,3.7256322746333836 -84.09348219635,2.580612617583398 -85.62017507241666,2.1989393985666936 -87.14686794848333,1.8172661795501028 -88.67356082455,1.8172661795501028 -90.20025370061666,1.8172661795501028 -91.72694657668333,2.1989393985666936 -93.63531267176666,2.580612617583398 -94.78033232881667,3.7256322746333836 -95.92535198586666,4.488978712666679 -96.6886984239,5.633998369716679 -97.45204486193333,7.160691245783369 -98.21539129996665,8.687384121850059 -98.59706451898332,10.214076997916749 -98.59706451898332,11.74076987398334 -98.59706451898332,13.267462750050043 -98.21539129996665,14.794155626116734 -97.45204486193333,15.939175283166719 -96.6886984239,17.46586815923341 -95.92535198586666,18.61088781628341 -94.78033232881667,19.75590747333341 -93.25363945275,20.519253911366704 -92.1086197957,20.900927130383394 -90.20025370061666,21.2826003494001 -88.67356082455,21.66427356841669 -87.14686794848333,21.2826003494001 -85.62017507241666,20.900927130383394 -84.09348219635,20.519253911366704 -82.94846253929998,19.75590747333341 -81.80344288225,18.61088781628341 -80.65842322519998,17.46586815923341 -79.89507678716666,15.939175283166719 -78.75005713011666,14.794155626116734 -78.75005713011666,13.267462750050043 -78.75005713011666,11.74076987398334 -79.13173034913332,10.214076997916749 -79.51340356815,8.687384121850059 -79.13173034913332,7.160691245783369 " 
stroke="crimson" 
stroke-width="1" 
fill="none"
id="line8" />

  <polyline points="-36.76600303828332,66.32004019336676 -36.76600303828332,80.44194929698338 -36.76600303828332,101.05230312388338 -36.76600303828332,108.30409428520004 -36.76600303828332,114.02919257045001 -36.76600303828332,120.13596407471667 -36.76600303828332,130.05946776915002 -36.76600303828332,141.50966433965004 -36.76600303828332,146.85308940588334 -36.76600303828332,149.14312871998342 -36.76600303828332,162.50169138556674 -36.76600303828332,165.17340391868333 -36.76600303828332,194.1805685639501 -36.76600303828332,207.1574580105167 -18.44568852548332,207.1574580105167 -15.773975992366658,207.1574580105167 -8.140511612033324,207.1574580105167 -5.468799078916662,207.1574580105167 1.4013188633833509,207.1574580105167 11.324822557816674,207.1574580105167 33.46186926078335,207.1574580105167 36.51525501291669,207.1574580105167 36.51525501291669,199.90566684920003 36.51525501291669,196.47060787805006 36.51525501291669,193.79889534493338 36.51525501291669,187.6921238406667 36.51525501291669,184.25706486951674 36.51525501291669,166.31842357573333 36.51525501291669,144.94472331080004 36.51525501291669,131.5861606452167 36.51525501291669,120.51763729373337 36.51525501291669,110.97580681831671 36.51525501291669,108.30409428520004 36.51525501291669,102.57899599995007 36.51525501291669,95.3272048386334 36.51525501291669,94.1821851815834 36.51525501291669,86.16704758223335 36.51525501291669,77.38856354485 36.51525501291669,72.04513847861672 36.51525501291669,67.84673306943336 36.51525501291669,63.64832766025007 30.02681028963335,63.64832766025007 25.82840488045002,63.64832766025007 23.156692347333337,63.64832766025007 19.721633376183355,63.64832766025007 -21.499074277616653,63.64832766025007 -34.09429050516666,63.64832766025007 -36.76600303828332,63.64832766025007 -36.76600303828332,66.32004019336676 " 
stroke="crimson" 
stroke-width="1" 
fill="none"
id="line9" />

  <polyline points="98.34631649361668,98.76226380978338 97.9646432746,97.23557093371669 97.2012968365667,95.70887805765 96.43795039853335,94.1821851815834 95.29293074148335,93.0371655245334 94.14791108443336,92.27381908650001 93.00289142738336,91.51047264846672 91.47619855131667,90.74712621043332 89.94950567525004,90.36545299141673 88.42281279918333,90.36545299141673 86.8961199231167,90.36545299141673 85.36942704705001,90.74712621043332 83.84273417098336,91.51047264846672 82.69771451393336,92.27381908650001 81.55269485688332,93.0371655245334 80.40767519983334,94.1821851815834 79.64432876180004,95.70887805765 78.88098232376669,97.23557093371669 78.49930910475,98.76226380978338 78.49930910475,100.28895668585008 78.49930910475,101.81564956191667 78.88098232376669,103.34234243798336 79.64432876180004,104.86903531405005 80.40767519983334,106.01405497110005 81.55269485688332,107.15907462815004 82.69771451393336,108.30409428520004 83.84273417098336,109.06744072323333 85.36942704705001,109.44911394225002 86.8961199231167,109.83078716126673 88.42281279918333,110.21246038028332 89.94950567525004,109.83078716126673 91.47619855131667,109.44911394225002 93.00289142738336,109.06744072323333 94.14791108443336,108.30409428520004 95.29293074148335,107.15907462815004 96.43795039853335,106.01405497110005 97.2012968365667,104.86903531405005 97.58297005558335,103.34234243798336 98.34631649361668,101.81564956191667 98.34631649361668,100.28895668585008 98.34631649361668,98.76226380978338 " 
stroke="crimson" 
stroke-width="1" 
fill="none"
id="line10" />

  <polyline points="9.798129681750007,452.95501105725 9.416456462733333,451.42831818118333 8.653110024700013,449.9016253051167 7.889763586666667,448.7566056480667 6.744743929616672,447.6115859910166 5.599724272566679,446.4665663339666 4.454704615516684,445.70321989593333 2.928011739450018,444.9398734579 1.4013188633833509,444.55820023888333 -0.125374012683316,444.55820023888333 -1.652066888749983,444.55820023888333 -3.17875976481665,444.9398734579 -4.705452640883316,445.70321989593333 -5.850472297933311,446.4665663339666 -7.377165173999978,447.6115859910166 -8.140511612033324,448.7566056480667 -8.903858050066644,449.9016253051167 -9.66720448809999,451.42831818118333 -10.048877707116663,452.95501105725 -10.048877707116663,454.4817039333167 -10.048877707116663,456.0083968093833 -9.66720448809999,457.53508968545 -8.903858050066644,459.0617825615167 -8.140511612033324,460.2068022185667 -7.377165173999978,461.3518218756167 -5.850472297933311,462.4968415326666 -4.705452640883316,463.2601879707 -3.17875976481665,464.0235344087333 -1.652066888749983,464.40520762775 -0.125374012683316,464.40520762775 1.4013188633833509,464.40520762775 2.928011739450018,464.0235344087333 4.454704615516684,463.2601879707 5.599724272566679,462.4968415326666 6.744743929616672,461.3518218756167 7.889763586666667,460.2068022185667 9.034783243716685,459.4434557805334 9.798129681750007,456.7717432474167 9.798129681750007,455.24505037135 9.798129681750007,452.95501105725 " 
stroke="crimson" 
stroke-width="1" 
fill="none"
id="line11" />

  <polyline points="-79.13173034913332,187.31045062165 -79.51340356815,185.78375774558333 -79.89507678716666,184.25706486951674 -80.65842322519998,183.11204521246674 -81.80344288225,181.58535233640004 -82.94846253929998,180.82200589836663 -84.09348219635,180.05865946033333 -85.62017507241666,179.29531302230004 -87.14686794848333,178.91363980328336 -88.67356082455,178.91363980328336 -90.20025370061666,178.91363980328336 -91.72694657668333,179.29531302230004 -93.25363945275,180.05865946033333 -94.78033232881667,180.82200589836663 -95.92535198586666,181.58535233640004 -96.6886984239,183.11204521246674 -97.45204486193333,184.25706486951674 -98.21539129996665,185.78375774558333 -98.59706451898332,187.31045062165 -98.59706451898332,188.8371434977167 -98.59706451898332,190.36383637378339 -98.21539129996665,191.89052924984998 -97.45204486193333,193.41722212591668 -96.6886984239,194.56224178296668 -95.92535198586666,195.70726144001668 -94.78033232881667,196.85228109706668 -93.25363945275,197.61562753510006 -91.72694657668333,198.37897397313336 -90.20025370061666,198.76064719215003 -88.67356082455,198.76064719215003 -87.14686794848333,198.76064719215003 -85.62017507241666,198.37897397313336 -84.09348219635,197.61562753510006 -82.94846253929998,196.85228109706668 -81.80344288225,195.70726144001668 -80.65842322519998,194.56224178296668 -79.89507678716666,193.41722212591668 -78.75005713011666,191.12718281181668 -78.75005713011666,189.60048993575 -79.13173034913332,187.31045062165 " 
stroke="crimson" 
stroke-width="1" 
fill="none"
id="line12" />

  <polyline points="-103.94048958521667,629.6697114619667 -102.79546992816665,630.0513846809833 -101.26877705209999,630.4330579 -100.12375739504998,630.4330579 -98.59706451898332,630.4330579 -93.63531267176666,630.4330579 -87.91021438651666,630.4330579 -82.94846253929998,630.4330579 -77.98671069208332,630.4330579 -73.40663206388332,630.4330579 -71.87993918781666,630.4330579 -68.82655343568332,630.4330579 -64.62814802649999,630.4330579 -60.429742617316656,630.4330579 -56.61301042714999,630.4330579 376.5860931567667,630.4330579 528.8737075444167,630.4330579 594.5215012152834,630.4330579 631.9254766789167,630.4330579 656.3525626959834,630.4330579 673.90953077075,630.4330579 686.8864202173166,630.4330579 697.5732703497833,630.4330579 705.97008116815,630.4330579 713.6035455484833,630.4330579 719.7103170527499,630.4330579 725.8170885570166,630.4330579 730.7788404042333,630.4330579 735.7405922514499,630.4330579 740.3206708796499,630.4330579 744.90074950785,630.4330579 749.0991549170333,630.4330579 753.2975603262166,630.4330579 757.1142925163833,630.4330579 759.4043318304833,630.4330579 768.9461623059001,630.4330579 786.12145716165,630.4330579 787.2664768187,630.4330579 788.7931696947666,630.4330579 789.9381893518166,630.0513846809833 791.4648822278833,629.6697114619667 792.6099018849334,629.2880382429499 794.136594761,628.5246918049166 795.2816144180499,628.1430185859 796.4266340751,627.3796721478667 798.3350001701833,625.4713060527832 799.4800198272334,624.3262863957333 800.2433662652668,623.1812667386833 801.0067127033,622.0362470816333 801.7700591413334,620.8912274245833 802.1517323603499,619.7462077675333 802.9150787983833,618.2195148914666 803.2967520174,617.0744952344166 803.2967520174,615.5478023583499 803.6784252364167,614.4027827013 803.6784252364167,612.8760898252334 803.6784252364167,470.5119791320167 803.6784252364167,-270.3157389793333 803.6784252364167,-496.64795785621664 803.6784252364167,-498.1746507322832 803.2967520174,-499.3196703893333 803.2967520174,-500.8463632653999 802.9150787983833,-501.9913829224498 802.1517323603499,-503.51807579851663 801.7700591413334,-504.6630954555666 801.0067127033,-505.80811511261663 800.2433662652668,-506.9531347696666 799.4800198272334,-508.09815442671663 798.3350001701833,-509.2431740837666 796.4266340751,-511.1515401788499 795.2816144180499,-511.9148866168832 794.136594761,-512.2965598359 792.6099018849334,-513.0599062739332 791.4648822278833,-513.4415794929499 789.9381893518166,-513.8232527119666 788.7931696947666,-514.2049259309831 787.2664768187,-514.2049259309831 786.12145716165,-514.58659915 784.5947642855834,-514.58659915 768.9461623059001,-514.58659915 761.3126979255667,-514.58659915 759.4043318304833,-514.58659915 756.3509460783499,-514.58659915 752.1525406691667,-514.58659915 747.9541352599833,-514.58659915 743.7557298508,-514.58659915 739.5573244416166,-514.58659915 735.3589190324334,-514.58659915 730.7788404042333,-514.58659915 726.1987617760333,-514.58659915 721.6186831478334,-514.58659915 716.2752580816,-514.58659915 710.55015979635,-514.58659915 704.4433882920833,-514.58659915 698.7182900068334,-514.58659915 612.4601425090666,-514.58659915 524.2936289162167,-514.58659915 433.45540279025,-514.58659915 432.3103831332,-514.58659915 390.3263290413666,-514.58659915 345.67056241641666,-514.58659915 338.4187712551,-514.58659915 237.27536821568333,-514.58659915 128.88017401495003,-514.58659915 10.17980290076668,-514.58659915 -11.57557058318333,-514.58659915 -29.132538657949986,-514.58659915 -52.414605017966664,-514.58659915 -57.376356865183325,-514.58659915 -61.574762274366655,-514.58659915 -65.77316768354999,-514.58659915 -69.97157309273332,-514.58659915 -71.87993918781666,-514.2049259309831 -74.16997850191666,-514.58659915 -78.36838391109998,-514.58659915 -82.94846253929998,-514.58659915 -87.5285411675,-514.58659915 -92.1086197957,-514.58659915 -97.45204486193333,-514.58659915 -98.59706451898332,-514.58659915 -100.12375739504998,-514.2049259309831 -101.26877705209999,-514.2049259309831 -102.79546992816665,-513.8232527119666 -103.94048958521667,-513.4415794929499 -105.08550924226665,-513.0599062739332 -106.61220211833333,-512.2965598359 -107.75722177538331,-511.9148866168832 -108.90224143243333,-511.1515401788499 -110.04726108948333,-510.0065205218 -111.19228074653333,-509.2431740837666 -111.95562718456667,-508.09815442671663 -113.10064684161667,-506.9531347696666 -113.86399327964999,-505.80811511261663 -114.24566649866667,-504.6630954555666 -115.0090129367,-503.51807579851663 -115.39068615571665,-501.9913829224498 -115.77235937473333,-500.8463632653999 -116.15403259375,-499.3196703893333 -116.15403259375,-498.1746507322832 -116.53570581276665,-496.64795785621664 -116.53570581276665,-270.3157389793333 -116.53570581276665,17.08419494021672 -116.53570581276665,22.045946787433394 -116.53570581276665,28.53439151071676 -116.53570581276665,37.69454876711671 -116.53570581276665,52.19813108975003 -116.53570581276665,84.25868148715006 -116.53570581276665,176.6236004891834 -116.53570581276665,181.20367911738333 -116.53570581276665,185.40208452656674 -116.53570581276665,189.60048993575 -116.53570581276665,194.1805685639501 -116.53570581276665,199.14232041116665 -116.53570581276665,203.72239903936673 -116.15403259375,205.63076513445003 -116.53570581276665,355.62834020800005 -116.53570581276665,421.65780709788334 -116.53570581276665,459.0617825615167 -116.53570581276665,470.5119791320167 -116.53570581276665,483.4888685785833 -116.53570581276665,500.6641634343334 -116.53570581276665,514.0227260999167 -116.53570581276665,524.3279030133666 -116.53570581276665,533.10638705075 -116.53570581276665,540.3581782120666 -116.53570581276665,546.8466229353501 -116.53570581276665,552.5717212206 -116.53570581276665,557.9151462868333 -116.53570581276665,562.87689813405 -116.53570581276665,567.45697676225 -116.53570581276665,571.6553821714333 -116.53570581276665,575.8537875806167 -116.53570581276665,580.0521929898 -116.53570581276665,584.2505983989834 -116.53570581276665,588.4490038081667 -116.53570581276665,592.64740921735 -116.53570581276665,597.22748784555 -116.53570581276665,601.8075664737501 -116.53570581276665,606.38764510195 -116.53570581276665,611.7310701681834 -116.53570581276665,612.8760898252334 -116.15403259375,614.4027827013 -116.15403259375,615.5478023583499 -115.77235937473333,617.0744952344166 -115.39068615571665,618.2195148914666 -115.0090129367,619.7462077675333 -114.24566649866667,620.8912274245833 -113.86399327964999,622.0362470816333 -113.10064684161667,623.1812667386833 -111.95562718456667,624.3262863957333 -111.19228074653333,625.4713060527832 -110.04726108948333,626.2346524908166 -108.90224143243333,627.3796721478667 -107.75722177538331,628.1430185859 -106.61220211833333,628.5246918049166 -105.08550924226665,629.2880382429499 -103.94048958521667,629.6697114619667 " 
stroke="crimson" 
stroke-width="1" 
fill="none"
id="line13" />

  <polyline points="759.4043318304833,577.3804804566834 759.4043318304833,576.2354607996333 759.4043318304833,575.0904411425834 759.4043318304833,573.9454214855334 758.2593121734334,573.5637482665167 757.8776389544167,572.4187286094666 756.3509460783499,570.8920357334 755.2059264213,569.7470160763501 754.0609067642499,569.3653428573333 752.5342138881833,568.9836696383168 751.3891942311333,568.6019964193 749.8625013550667,568.6019964193 748.335808479,568.9836696383168 747.19078882195,569.3653428573333 746.0457691649,569.7470160763501 744.90074950785,570.8920357334 743.7557298508,571.6553821714333 742.9923834127667,572.8004018284832 742.2290369747334,573.9454214855334 741.8473637557166,575.4721143616 741.8473637557166,576.61713401865 741.8473637557166,578.1438268947167 741.8473637557166,579.6705197707834 742.2290369747334,580.8155394278333 742.9923834127667,581.9605590848832 743.7557298508,583.1055787419333 744.90074950785,584.2505983989834 746.0457691649,585.0139448370167 747.19078882195,585.77729127505 748.335808479,586.1589644940667 749.8625013550667,586.1589644940667 751.0075210121167,586.1589644940667 752.1525406691667,586.1589644940667 753.2975603262166,586.1589644940667 754.4425799832667,585.3956180560333 755.5875996403166,584.632271618 756.7326192973668,583.8689251799666 757.8776389544167,582.7239055229165 758.2593121734334,581.5788858658666 759.0226586114668,580.0521929898 759.4043318304833,578.9071733327501 759.4043318304833,577.3804804566834 " 
stroke="crimson" 
stroke-width="1" 
fill="none"
id="line14" />

  <polyline points="-54.32297111304999,574.32709470455 -55.46799077009999,573.5637482665167 -55.46799077009999,572.4187286094666 -55.84966398911666,571.2737089524167 -56.99468364616665,570.5103625143834 -58.139703303216656,570.1286892953667 -58.903049741249994,568.9836696383168 -60.429742617316656,568.6019964193 -61.574762274366655,568.2203232002832 -63.48312836944999,568.2203232002832 -65.39149446453332,568.6019964193 -67.29986055961666,568.9836696383168 -68.44488021666665,570.1286892953667 -69.58989987371666,571.2737089524167 -70.35324631175,572.4187286094666 -71.11659274978332,573.5637482665167 -71.87993918781666,574.7087679235667 -71.87993918781666,576.61713401865 -71.87993918781666,577.7621536757001 -71.87993918781666,578.9071733327501 -71.87993918781666,580.0521929898 -71.11659274978332,581.9605590848832 -70.35324631175,583.1055787419333 -68.44488021666665,584.632271618 -67.29986055961666,585.3956180560333 -66.15484090256665,585.77729127505 -65.00982124551666,586.1589644940667 -63.864801588466655,586.1589644940667 -62.719781931416655,586.1589644940667 -61.574762274366655,586.1589644940667 -60.429742617316656,586.1589644940667 -58.52137652223332,585.0139448370167 -57.376356865183325,584.2505983989834 -56.61301042714999,583.1055787419333 -55.46799077009999,581.9605590848832 -55.086317551083326,580.8155394278333 -54.70464433206665,579.6705197707834 -54.32297111304999,578.1438268947167 -54.32297111304999,576.61713401865 -54.32297111304999,575.4721143616 -54.32297111304999,574.32709470455 " 
stroke="crimson" 
stroke-width="1" 
fill="none"
id="line15" />

  <polyline points="759.4043318304833,-461.1523484876666 759.4043318304833,-462.29736814471664 759.4043318304833,-463.4423878017666 759.4043318304833,-464.58740745881664 758.2593121734334,-465.7324271158666 757.1142925163833,-466.87744677291664 756.3509460783499,-468.0224664299666 755.2059264213,-468.78581286799977 754.0609067642499,-469.5491593060332 752.5342138881833,-469.93083252505005 751.3891942311333,-469.93083252505005 750.2441745740833,-469.93083252505005 749.0991549170333,-469.93083252505005 747.9541352599833,-469.93083252505005 746.8091156029333,-469.93083252505005 745.2824227268666,-468.40413964898323 744.1374030698166,-467.6407932109498 743.3740566317833,-466.49577355389977 742.61071019375,-465.3507538968498 742.2290369747334,-463.82406102078323 741.8473637557166,-462.6790413637332 741.8473637557166,-461.1523484876666 741.8473637557166,-460.00732883061664 742.2290369747334,-458.4806359545498 742.61071019375,-457.3356162974999 743.3740566317833,-456.1905966404498 744.1374030698166,-455.0455769833999 745.2824227268666,-453.9005573263498 746.4274423839166,-453.5188841073333 747.9541352599833,-452.7555376692999 749.0991549170333,-452.37386445028324 750.6258477931,-452.37386445028324 751.77086745015,-452.37386445028324 753.2975603262166,-452.7555376692999 754.4425799832667,-453.5188841073333 755.5875996403166,-453.9005573263498 756.7326192973668,-455.0455769833999 757.8776389544167,-455.4272502024164 758.2593121734334,-457.3356162974999 759.0226586114668,-458.4806359545498 759.4043318304833,-460.00732883061664 759.4043318304833,-461.1523484876666 " 
stroke="crimson" 
stroke-width="1" 
fill="none"
id="line16" />

  <polyline points="-54.32297111304999,-460.3890020496333 -54.32297111304999,-462.29736814471664 -54.32297111304999,-463.4423878017666 -54.32297111304999,-464.58740745881664 -55.46799077009999,-465.7324271158666 -56.61301042714999,-466.87744677291664 -57.376356865183325,-468.0224664299666 -58.52137652223332,-468.78581286799977 -59.666396179283325,-469.5491593060332 -61.19308905534999,-469.93083252505005 -62.338108712399986,-469.93083252505005 -63.48312836944999,-469.93083252505005 -64.62814802649999,-469.93083252505005 -65.77316768354999,-469.93083252505005 -66.91818734059999,-469.93083252505005 -68.44488021666665,-468.40413964898323 -69.58989987371666,-467.6407932109498 -70.35324631175,-466.49577355389977 -71.11659274978332,-465.3507538968498 -71.49826596879998,-463.82406102078323 -71.87993918781666,-462.6790413637332 -71.87993918781666,-461.1523484876666 -71.87993918781666,-460.00732883061664 -71.87993918781666,-458.8623091735667 -71.11659274978332,-457.3356162974999 -70.35324631175,-456.1905966404498 -69.58989987371666,-455.0455769833999 -68.44488021666665,-453.9005573263498 -67.29986055961666,-453.5188841073333 -65.77316768354999,-452.7555376692999 -64.62814802649999,-452.37386445028324 -63.10145515043332,-452.37386445028324 -61.956435493383324,-452.37386445028324 -60.429742617316656,-452.7555376692999 -59.28472296026665,-453.5188841073333 -58.139703303216656,-453.9005573263498 -56.61301042714999,-455.4272502024164 -55.46799077009999,-456.5722698594667 -55.086317551083326,-457.71728951651664 -54.70464433206665,-459.24398239258323 -54.32297111304999,-460.3890020496333 " 
stroke="crimson" 
stroke-width="1" 
fill="none"
id="line17" />

</g>
</g>
<g
inkscape:label="BaseMountSlice 2"
inkscape:groupmode="layer" 
id="layer2" 
><g
id="g372">
  <polyline points="-87.3351356604166,276.4566886000009 -85.32726169374992,275.86613743333425 -78.47686816041657,273.97637370000086 -75.99655326041656,272.9133816000009 -73.39812812708323,271.61416903333424 -70.09104159374988,270.07873600000084 -62.41387642708319,264.76377550000086 -59.93356152708318,262.28346060000086 -57.57135686041651,259.9212559333342 -55.917813593749834,258.26771266666753 -54.028049860416495,255.66928753333417 -51.31151449374982,251.65353960000084 -50.60285309374982,250.59054750000084 -46.7052153937498,242.20472093333416 -46.35088469374981,241.14172883333416 -44.5792311937498,234.5275557666675 -44.22490049374981,233.34645343333415 -44.10679026041647,231.69291016666747 -43.75245956041646,231.4566897000008 -42.8075776937498,231.22046923333414 -41.39025489374979,230.86613853333412 -36.66584556041645,229.56692596666747 -35.60285346041645,229.3307055000008 -23.79183012708308,226.14172920000078 -17.76820822708306,224.60629616666745 -6.902066760416381,221.6535403333341 -5.839074660416366,225.19684733333412 -4.539862093749698,229.80314643333412 -1.9414369604163613,238.30708323333414 -0.05167322708300939,244.56692560000081 2.4286416729170006,236.29920926666748 5.853838439583674,224.96062686666744 8.216043106250332,217.63779240000076 11.286909172917001,216.8110207666674 12.940452439583675,216.33857983333405 14.593995706250347,215.86613890000075 17.664861772917043,215.15747750000077 19.672735739583693,214.44881610000073 20.145176672917025,214.44881610000073 27.94045207291706,212.32283190000072 34.4365149062504,210.55117840000074 35.73572747291707,210.31495793333409 36.56249910625041,210.0787374666674 39.6333651729171,209.25196583333405 40.69635727291709,208.77952490000075 41.28690843958375,208.42519420000073 47.310530339583785,205.70865883333406 54.27903410625046,202.40157230000074 56.16879783958381,201.45669043333405 58.058561572917135,200.62991880000072 59.3577741395838,199.80314716666737 74.59399423958385,189.05511593333404 88.88533247291723,174.76377770000065 91.12942690625056,172.28346280000065 95.38139530625057,168.2677148666673 96.2081669395839,167.44094323333394 103.76722187291728,159.88188830000064 111.5624972729173,151.96850266666726 119.94832383958399,143.58267610000058 129.27903227291733,134.2519676666672 134.00344160625065,127.28346390000054 134.59399277291735,126.57480250000053 137.310528139584,120.78740106666717 138.49163047291736,118.18897593333384 140.3813942062507,110.98425170000048 140.853835139584,109.33070843333381 140.853835139584,108.74015726666715 142.38926817291735,108.38582656666715 170.02706277291745,100.00000000000045 140.853835139584,91.37795296666711 140.853835139584,90.78740180000045 138.49163047291736,81.92913430000043 134.59399277291735,73.42519750000041 132.23178810625066,70.11811096666706 129.27903227291733,65.86614256666704 125.14517410625066,61.73228440000036 120.53887500625062,57.24409553333368 119.94832383958399,56.535434133333716 99.63336370625058,36.10236376666695 96.2081669395839,32.67716700000028 95.38139530625057,31.850395366666945 91.12942690625056,27.716537200000303 88.88533247291723,25.35433253333362 81.7987184729172,18.26771853333358 74.59399423958385,11.062994300000241 70.81446677291717,8.464569166666905 65.49950627291717,4.6850417000002125 64.43651417291716,3.976380300000244 59.3577741395838,0.314963066666877 59.0034434395838,0.07874260000021138 58.058561572917135,-0.5118085666664598 56.16879783958381,-1.3385801999997966 54.27903410625046,-2.2834620666664733 50.97194757291711,-3.818895099999807 44.12155403958376,-7.007871399999786 39.6333651729171,-9.13385559999982 39.16092423958374,-9.251965833333145 36.56249910625041,-9.960627233333156 35.73572747291707,-10.196847699999807 34.4365149062504,-10.433068166666459 28.885333939583724,-11.968501199999807 26.523129272917068,-12.677162599999818 24.042814372917057,-13.267713766666503 23.68848367291705,-13.385823999999829 21.916830172917052,-13.858264933333132 20.73572783958371,-14.212595633333166 20.145176672917025,-14.330705866666491 17.901082239583694,-14.921257033333177 17.664861772917043,-14.566926333333143 17.664861772917043,-13.149603533333163 17.664861772917043,-11.850390966666481 17.664861772917043,-0.6299187999997997 17.664861772917043,4.803151933333581 17.664861772917043,5.511813333333549 17.664861772917043,6.338584966666886 17.664861772917043,16.023624100000262 17.664861772917043,18.6220492333336 17.664861772917043,19.33071063333361 17.664861772917043,23.110238100000274 17.664861772917043,24.055119966666936 17.664861772917043,27.244096266666958 17.664861772917043,29.25197023333361 17.664861772917043,31.850395366666945 17.664861772917043,36.69291493333363 17.664861772917043,37.401576333333644 17.664861772917043,49.803150833333696 17.664861772917043,51.338583866666994 17.664861772917043,52.047245266667 17.664861772917043,52.99212713333367 17.664861772917043,54.29133970000036 17.664861772917043,55.94488296666703 17.664861772917043,59.370079733333704 17.664861772917043,60.078741133333715 17.664861772917043,63.50393790000036 19.790845972917047,63.50393790000036 21.090058539583715,63.50393790000036 21.562499472917047,63.50393790000036 23.21604273958372,63.50393790000036 26.050688339583708,63.50393790000036 27.94045207291706,63.50393790000036 30.302656739583718,63.50393790000036 30.656987439583723,63.50393790000036 32.90108187291708,63.50393790000036 36.56249910625041,63.50393790000036 36.56249910625041,63.858268600000365 36.56249910625041,67.75590630000038 36.56249910625041,69.40944956666705 36.56249910625041,75.66929193333374 36.56249910625041,77.44094543333374 36.56249910625041,78.85826823333375 36.56249910625041,79.56692963333374 36.56249910625041,85.47244130000043 36.56249910625041,86.06299246666711 36.56249910625041,86.7716538666671 36.56249910625041,88.5433073666671 36.56249910625041,93.62204740000044 36.56249910625041,94.21259856666713 36.56249910625041,95.27559066666711 36.56249910625041,96.45669300000046 36.56249910625041,100.00000000000045 36.56249910625041,102.36220466666714 36.56249910625041,106.49606283333382 36.56249910625041,110.86614146666716 36.56249910625041,111.57480286666717 36.56249910625041,113.34645636666717 36.56249910625041,118.30708616666719 36.56249910625041,120.31496013333384 36.56249910625041,121.14173176666718 36.56249910625041,122.67716480000053 36.56249910625041,126.22047180000052 36.56249910625041,130.7086606666672 36.56249910625041,131.65354253333388 36.56249910625041,140.1574793333339 36.56249910625041,143.58267610000058 36.56249910625041,145.7086603000006 36.56249910625041,153.1496050000006 36.56249910625041,163.4251953000006 36.56249910625041,165.7873999666673 36.56249910625041,168.2677148666673 36.56249910625041,190.472438733334 36.56249910625041,193.66141503333404 36.56249910625041,194.9606276000007 36.56249910625041,195.55117876666736 36.56249910625041,196.25984016666737 36.56249910625041,199.80314716666737 36.56249910625041,200.62991880000072 36.56249910625041,200.98424950000071 36.56249910625041,207.00787140000074 35.97194793958375,207.00787140000074 34.20029443958375,207.00787140000074 33.49163303958374,207.00787140000074 29.00344417291705,207.00787140000074 24.160924606250383,207.00787140000074 20.26328690625038,207.00787140000074 18.845964106250356,207.00787140000074 17.664861772917043,207.00787140000074 16.95620037291703,207.00787140000074 15.420767339583684,207.00787140000074 14.00344453958369,207.00787140000074 11.99557057291701,207.00787140000074 11.168798939583674,207.00787140000074 9.633365906250352,207.00787140000074 9.160924972916996,207.00787140000074 6.090058906250327,207.00787140000074 1.7199802729169906,207.00787140000074 0.5388779395836488,207.00787140000074 -0.05167322708300939,207.00787140000074 -4.657972327083025,207.00787140000074 -5.366633727083035,207.00787140000074 -7.965058860416371,207.00787140000074 -8.791830493749709,207.00787140000074 -11.272145393749717,207.00787140000074 -15.760334260416395,207.00787140000074 -17.76820822708306,207.00787140000074 -18.9493105604164,207.00787140000074 -20.012302660416402,207.00787140000074 -30.287892960416436,207.00787140000074 -35.72096369374977,207.00787140000074 -36.66584556041645,207.00787140000074 -36.66584556041645,204.7637769666674 -36.66584556041645,202.6377927666674 -36.66584556041645,200.51180856666738 -36.66584556041645,193.8976355000007 -36.66584556041645,168.2677148666673 -36.66584556041645,167.20472276666732 -36.66584556041645,165.19684880000062 -36.66584556041645,163.4251953000006 -36.66584556041645,162.00787250000064 -36.66584556041645,146.1811012333339 -36.66584556041645,143.58267610000058 -36.66584556041645,141.2204714333339 -36.66584556041645,139.33070770000057 -36.66584556041645,137.44094396666725 -36.66584556041645,135.55118023333387 -36.66584556041645,132.59842440000054 -36.66584556041645,130.7086606666672 -36.66584556041645,129.6456685666672 -36.66584556041645,126.1023615666672 -36.66584556041645,122.67716480000053 -36.66584556041645,121.14173176666718 -36.66584556041645,119.96062943333386 -36.66584556041645,118.89763733333385 -36.66584556041645,114.52755870000051 -36.66584556041645,114.05511776666718 -36.66584556041645,113.34645636666717 -36.66584556041645,112.75590520000051 -36.66584556041645,111.6929131000005 -36.66584556041645,110.98425170000048 -36.66584556041645,106.49606283333382 -36.66584556041645,105.0787400333338 -36.66584556041645,101.88976373333381 -36.66584556041645,101.06299210000047 -36.66584556041645,100.00000000000045 -36.66584556041645,98.34645673333381 -36.66584556041645,95.03937020000046 -36.66584556041645,93.62204740000044 -36.66584556041645,92.08661436666712 -36.66584556041645,88.42519713333377 -36.66584556041645,87.36220503333378 -36.66584556041645,86.7716538666671 -36.66584556041645,86.06299246666711 -36.66584556041645,85.59055153333378 -36.66584556041645,81.22047290000042 -36.66584556041645,80.27559103333375 -36.66584556041645,79.80315010000042 -36.66584556041645,78.97637846666709 -36.66584556041645,76.9685045000004 -36.66584556041645,74.01574866666706 -36.66584556041645,70.47244166666707 -36.66584556041645,69.40944956666705 -36.66584556041645,67.51968583333371 -36.66584556041645,63.50393790000036 -35.48474322708311,63.50393790000036 -30.760333893749767,63.50393790000036 -29.4611213270831,63.50393790000036 -28.75245992708309,63.50393790000036 -24.972932460416413,63.50393790000036 -21.665845927083076,63.50393790000036 -21.193404993749745,63.38582766666703 -18.9493105604164,63.50393790000036 -17.76820822708306,63.50393790000036 -17.76820822708306,62.44094580000037 -17.76820822708306,57.834646700000356 -17.76820822708306,54.88189086666704 -17.76820822708306,53.818898766667 -17.76820822708306,52.99212713333367 -17.76820822708306,51.338583866666994 -17.76820822708306,47.67716663333366 -17.76820822708306,46.732284766667 -17.76820822708306,44.133859633333664 -17.76820822708306,43.661418700000304 -17.76820822708306,31.850395366666945 -17.76820822708306,29.724411166666954 -17.76820822708306,19.212600400000284 -17.76820822708306,-0.3936983333331341 -17.76820822708306,-1.4566904333331365 -17.76820822708306,-14.566926333333143 -17.76820822708306,-15.039367266666503 -17.76820822708306,-16.220469599999817 -17.76820822708306,-16.57480029999985 -17.76820822708306,-18.22834356666651 -17.76820822708306,-19.409445899999838 -17.76820822708306,-24.488185933333185 -21.665845927083076,-25.433067799999847 -22.256397093749747,-25.6692882666665 -31.587105527083104,-28.14960316666651 -34.65797159374977,-28.97637479999983 -35.60285346041645,-29.21259526666654 -36.783955793749776,-29.44881573333319 -41.39025489374979,-30.748028299999845 -42.8075776937498,-31.102358999999865 -43.75245956041646,-31.338579466666516 -44.10679026041647,-31.456689699999856 -44.22490049374981,-33.22834319999984 -44.5792311937498,-34.40944553333321 -45.28789259374981,-37.00787066666655 -46.7052153937498,-42.08661069999991 -49.657971227083145,-48.464563299999895 -50.60285309374982,-50.59054749999993 -54.73671126041649,-56.49605916666661 -55.917813593749834,-58.149602433333285 -62.41387642708319,-64.64566526666658 -70.09104159374988,-69.96062576666665 -73.87056906041656,-71.73227926666664 -78.47686816041657,-73.85826346666661 -87.3351356604166,-76.33857836666664 -96.66584409374995,-77.16534999999996 -98.67371806041662,-76.92912953333331 -100.79970226041662,-76.69290906666663 -102.21702506041663,-76.57479883333329 -104.81545019374997,-76.33857836666664 -105.87844229374997,-76.33857836666664 -109.18552882708332,-75.39369649999998 -114.73670979374998,-73.85826346666661 -116.27214282708333,-73.26771229999994 -116.27214282708333,-57.91338196666658 -116.27214282708333,-47.28346096666658 -116.27214282708333,-40.433067433333235 -116.27214282708333,-35.23621716666656 -116.27214282708333,-33.81889436666654 -116.27214282708333,-32.99212273333319 -116.27214282708333,-32.28346133333318 -116.27214282708333,-31.692910166666508 -116.27214282708333,-30.984248766666553 -116.27214282708333,-28.50393386666653 -116.27214282708333,-28.14960316666651 -116.27214282708333,-27.55905199999988 -116.27214282708333,-27.08661106666652 -116.27214282708333,-26.732280366666544 -116.27214282708333,-26.259839433333184 -116.27214282708333,-25.6692882666665 -116.27214282708333,-25.07873709999987 -116.27214282708333,-24.488185933333185 -116.27214282708333,-23.661414299999848 -116.27214282708333,-22.83464266666651 -116.27214282708333,-22.007871033333174 -116.27214282708333,-20.82676869999986 -116.27214282708333,-19.527556133333164 -116.27214282708333,-17.992123099999816 -116.27214282708333,-16.10235936666649 -116.27214282708333,-13.62204446666648 -116.27214282708333,-10.314957933333133 -116.27214282708333,-5.826769066666472 -116.27214282708333,-4.8818871999998095 -116.27214282708333,0.6692937666668968 -116.27214282708333,1.9685063333335506 -116.27214282708333,10.590553366666896 -116.27214282708333,13.543309200000252 -116.27214282708333,14.133860366666937 -116.27214282708333,20.393702733333598 -116.27214282708333,26.535434866666947 -116.27214282708333,28.07086790000028 -116.27214282708333,31.850395366666945 -116.27214282708333,38.110237733333655 -116.27214282708333,52.75590666666701 -116.27214282708333,74.25196913333374 -116.27214282708333,78.26771706666707 -116.27214282708333,78.62204776666708 -116.27214282708333,79.6850398666671 -116.27214282708333,81.4566933666671 -116.27214282708333,83.9370082666671 -116.27214282708333,86.53543340000044 -116.27214282708333,88.5433073666671 -116.27214282708333,100.00000000000045 -116.27214282708333,111.57480286666717 -116.27214282708333,113.34645636666717 -116.27214282708333,113.70078706666717 -116.27214282708333,118.66141686666717 -116.27214282708333,120.4330703666672 -116.27214282708333,121.49606246666718 -116.27214282708333,121.85039316666719 -116.27214282708333,124.80314900000053 -116.27214282708333,125.86614110000052 -116.27214282708333,135.9055109333339 -116.27214282708333,138.26771560000057 -116.27214282708333,140.8661407333339 -116.27214282708333,147.5984240333339 -116.27214282708333,149.13385706666725 -116.27214282708333,157.87401433333395 -116.27214282708333,159.99999853333395 -116.27214282708333,164.96062833333397 -116.27214282708333,168.2677148666673 -116.27214282708333,170.86614000000063 -116.27214282708333,173.58267536666733 -116.27214282708333,175.23621863333398 -116.27214282708333,175.59054933333397 -116.27214282708333,179.72440750000067 -116.27214282708333,183.26771450000066 -116.27214282708333,185.39369870000067 -116.27214282708333,186.220470333334 -116.27214282708333,186.574801033334 -116.27214282708333,188.70078523333402 -116.27214282708333,191.4173206000007 -116.27214282708333,193.5433048000007 -116.27214282708333,193.8976355000007 -116.27214282708333,195.55117876666736 -116.27214282708333,197.4409425000007 -116.27214282708333,199.2125960000007 -116.27214282708333,200.74802903333403 -116.27214282708333,202.28346206666737 -116.27214282708333,203.7007848666674 -116.27214282708333,204.99999743333404 -116.27214282708333,206.06298953333408 -116.27214282708333,207.12598163333405 -116.27214282708333,207.9527532666674 -116.27214282708333,219.76377660000074 -116.27214282708333,222.48031196666744 -116.27214282708333,225.5511780333341 -116.27214282708333,226.37794966666743 -116.27214282708333,229.21259526666745 -116.27214282708333,233.46456366666746 -116.27214282708333,233.9370046000008 -116.27214282708333,235.3543274000008 -116.27214282708333,240.55117766666748 -116.27214282708333,247.40157120000083 -116.27214282708333,250.94487820000083 -116.27214282708333,258.03149220000086 -116.27214282708333,273.38582253333425 -114.73670979374998,273.97637370000086 -109.18552882708332,275.5118067333342 -106.46899346041664,276.22046813333424 -105.87844229374997,276.4566886000009 -104.69733996041664,276.5747988333343 -96.66584409374995,277.1653500000009 -87.3351356604166,276.4566886000009 " 
stroke="gray" 
stroke-width="1" 
fill="none"
id="line18" />

  <polyline points="102.4680093062506,100.00000000000045 101.87745813958391,97.04724416666714 101.4050172062506,94.68503950000046 98.45226137291726,90.19685063333377 97.62548973958393,89.60629946666711 95.97194647291725,88.5433073666671 93.84596227291725,87.1259845666671 91.9561985395839,86.7716538666671 91.12942690625056,86.53543340000044 89.83021433958389,86.29921293333376 88.53100177291722,86.06299246666711 87.58611990625056,86.29921293333376 85.57824593958388,86.65354363333377 83.21604127291722,87.1259845666671 82.03493893958388,87.95275620000044 81.56249800625055,88.18897666666712 79.6727342729172,89.48818923333378 78.60974217291721,90.19685063333377 78.13730123958388,90.90551203333378 77.42863983958387,92.08661436666712 76.95619890625053,92.67716553333378 75.53887610625051,94.68503950000046 75.18454540625054,96.57480323333378 74.83021470625053,98.81889766666714 74.71210447291718,99.17322836666715 74.47588400625052,100.00000000000045 74.71210447291718,100.94488186666715 75.06643517291718,102.9527558333338 75.53887610625051,105.0787400333338 75.53887610625051,105.4330707333338 76.71997843958385,107.08661400000048 77.9010807729172,108.85826750000048 78.60974217291721,109.9212596000005 79.43651380625055,110.51181076666715 81.09005707291722,111.57480286666717 83.21604127291722,112.99212566666716 85.10580500625055,113.34645636666717 87.11367897291723,113.8188973000005 88.29478130625057,114.05511776666718 89.47588363958388,113.8188973000005 91.12942690625056,113.58267683333382 91.48375760625056,113.4645666000005 93.84596227291725,112.99212566666716 95.49950553958392,111.92913356666718 97.38926927291725,110.62992100000051 98.45226137291726,109.9212596000005 98.9247023062506,109.21259820000049 99.16092277291725,108.85826750000048 101.4050172062506,105.4330707333338 101.87745813958391,103.07086606666715 102.4680093062506,100.00000000000045 " 
stroke="gray" 
stroke-width="1" 
fill="none"
id="line19" />

  <polyline points="-100.09104086041663,181.14173030000066 -101.62647389374996,183.26771450000066 -101.98080459374997,185.15747823333402 -102.33513529374996,187.40157266666733 -102.57135576041664,188.81889546666736 -102.4532455270833,189.52755686666734 -102.09891482708329,191.53543083333403 -101.86269436041663,192.598422933334 -101.50836366041662,194.13385596666737 -100.44537156041663,195.6692890000007 -99.97293062708329,196.3779504000007 -99.26426922708329,197.4409425000007 -98.43749759374995,198.62204483333403 -97.72883619374994,199.0944857666674 -96.66584409374995,199.80314716666737 -96.07529292708328,200.15747786666736 -95.24852129374995,200.74802903333403 -93.94930872708326,201.5748006666674 -92.05954499374994,201.92913136666738 -89.93356079374993,202.40157230000074 -88.63434822708327,202.6377927666674 -87.68946636041659,202.40157230000074 -85.68159239374992,202.04724160000072 -83.31938772708324,201.5748006666674 -81.66584446041657,200.51180856666738 -79.77608072708324,199.2125960000007 -78.83119886041656,198.74015506666737 -78.5949783937499,198.38582436666738 -78.24064769374989,197.7952732000007 -78.00442722708324,197.4409425000007 -75.76033279374988,194.01574573333403 -75.40600209374989,192.598422933334 -74.81545092708322,189.52755686666734 -74.57923046041655,189.17322616666735 -74.6973406937499,188.58267500000068 -75.76033279374988,183.26771450000066 -78.71308862708322,178.779525633334 -79.53986026041656,178.18897446666733 -81.19340352708323,177.1259823666673 -82.96505702708325,175.944880033334 -83.31938772708324,175.70865956666734 -85.20915146041659,175.35432886666732 -87.3351356604166,174.88188793333399 -88.87056869374992,174.6456674666673 -89.57923009374993,174.88188793333399 -91.5871040604166,175.23621863333398 -93.24064732708328,175.59054933333397 -93.83119849374994,175.70865956666734 -95.60285199374994,176.7716516666673 -96.66584409374995,177.48031306666732 -97.49261572708329,178.070864233334 -98.55560782708328,178.779525633334 -99.14615899374995,179.60629726666733 -100.09104086041663,181.14173030000066 " 
stroke="gray" 
stroke-width="1" 
fill="none"
id="line20" />

  <polyline points="-96.66584409374995,0.314963066666877 -98.55560782708328,1.6141756333335593 -100.20915109374995,3.976380300000244 -101.62647389374996,6.1023645000002205 -101.7445841270833,6.811025900000232 -101.98080459374997,7.99212823333356 -102.33513529374996,10.236222666666905 -102.57135576041664,11.181104533333567 -102.4532455270833,12.362206866666895 -102.33513529374996,12.83464780000024 -102.09891482708329,14.370080833333589 -101.62647389374996,16.8503957333336 -100.44537156041663,18.503939000000273 -100.09104086041663,18.97637993333359 -99.26426922708329,20.275592500000272 -98.79182829374996,21.10236413333361 -97.72883619374994,21.929135766666946 -97.02017479374994,22.401576700000263 -96.66584409374995,22.637797166666957 -96.07529292708328,22.992127866666934 -93.94930872708326,24.409450666666956 -93.12253709374994,24.645671133333607 -92.53198592708327,24.645671133333607 -92.05954499374994,24.763781366666947 -91.5871040604166,24.881891600000273 -90.99655289374992,25.0000018333336 -88.98867892708326,25.35433253333362 -88.63434822708327,25.472442766666944 -83.31938772708324,24.409450666666956 -82.96505702708325,24.173230200000262 -81.66584446041657,23.346458566666925 -79.77608072708324,22.04724600000027 -78.71308862708322,21.33858460000026 -78.24064769374989,20.629923200000263 -78.00442722708324,20.275592500000272 -76.4689941937499,18.031498066666927 -75.76033279374988,16.8503957333336 -74.6973406937499,11.417325000000233 -74.6973406937499,11.062994300000241 -75.28789186041655,7.99212823333356 -75.40600209374989,7.519687300000243 -75.64222256041656,6.338584966666886 -77.05954536041656,4.09449053333357 -78.83119886041656,1.3779551666669079 -79.53986026041656,1.023624466666874 -81.07529329374991,-0.03936763333311433 -83.31938772708324,-1.4566904333331365 -85.20915146041659,-1.8110211333331137 -87.3351356604166,-2.2834620666664733 -88.63434822708327,-2.5196825333331248 -89.57923009374993,-2.2834620666664733 -90.52411196041659,-2.1653518333331334 -91.5871040604166,-1.9291313666664394 -92.6500961604166,-1.692910899999788 -93.94930872708326,-1.4566904333331365 -96.31151339374995,0.07874260000021138 -96.66584409374995,0.314963066666877 " 
stroke="gray" 
stroke-width="1" 
fill="none"
id="line21" />

</g>
</g>
<g
inkscape:label="BaseMountSlice 3"
inkscape:groupmode="layer" 
id="layer3" 
></g>
</svg>